<?xml version="1.0" standalone="no"?><!DOCTYPE svg PUBLIC "-//W3C//DTD SVG 1.1//EN" "http://www.w3.org/Graphics/SVG/1.1/DTD/svg11.dtd"><svg t="1622604941631" class="icon" viewBox="0 0 1024 1024" version="1.1" xmlns="http://www.w3.org/2000/svg" p-id="4452" xmlns:xlink="http://www.w3.org/1999/xlink" width="200" height="200"><defs><style type="text/css"></style></defs><path d="M303.786667 332.8l38.762666 235.882667h474.688L856 332.8H303.786667zM277.333333 645.482667L213.333333 256h733.12l-64 389.482667H277.333333z" fill="#d81e06" p-id="4453"></path><path d="M725.333333 809.834667a85.333333 84.501333 0 1 0 170.666667 0 85.333333 84.501333 0 1 0-170.666667 0Z" fill="#d81e06" p-id="4454"></path><path d="M277.333333 809.834667a85.333333 84.501333 0 1 0 170.666667 0 85.333333 84.501333 0 1 0-170.666667 0Z" fill="#d81e06" p-id="4455"></path><path d="M87.914667 154.688c36.266667 0 68.693333 23.296 96.789333 64.917333 10.666667 15.786667 19.776 32.96 27.264 50.133334 4.437333 10.176 7.253333 17.898667 8.512 21.802666L293.696 268.373333c-7.466667-23.68-22.229333-57.472-45.333333-91.733333C207.402667 115.968 154.389333 77.888 87.936 77.888v76.8z" fill="#d81e06" p-id="4456"></path></svg>